<?xml version="1.0" standalone="no"?><!DOCTYPE svg PUBLIC "-//W3C//DTD SVG 1.1//EN" "http://www.w3.org/Graphics/SVG/1.1/DTD/svg11.dtd"><svg t="1729311603383" class="icon" viewBox="0 0 1024 1024" version="1.1" xmlns="http://www.w3.org/2000/svg" p-id="7740" xmlns:xlink="http://www.w3.org/1999/xlink" width="200" height="200"><path d="M628.951579 886.298947a164.648421 164.648421 0 0 1-175.696842-175.696842c0-88.926316 63.056842-159.797895 100.513684-202.374737 7.814737-8.892632 14.821053-16.707368 19.402105-22.905263a213.423158 213.423158 0 0 0 29.103158-84.345263 26.947368 26.947368 0 0 1 53.894737-3.233684A299.385263 299.385263 0 0 0 692.547368 485.052632c4.311579 5.928421 10.509474 12.934737 17.785264 21.288421C747.250526 549.456842 808.421053 619.789474 808.421053 710.602105a170.037895 170.037895 0 0 1-179.469474 175.696842z m3.503158-396.126315a155.755789 155.755789 0 0 1-16.168421 26.947368c-5.389474 7.275789-13.204211 16.168421-22.366316 26.947368-34.762105 39.073684-87.04 98.088421-87.04 166.534737 0 77.338947 44.463158 121.802105 121.802105 121.802106 57.936842 0 125.844211-31.797895 125.844211-121.802106 0-69.793684-51.469474-129.347368-85.423158-168.690526-8.084211-9.431579-15.090526-17.515789-19.941053-24.252632a195.637895 195.637895 0 0 1-16.437894-27.486315zM342.231579 497.178947a118.837895 118.837895 0 0 1-126.652632-126.652631c0-63.056842 43.654737-112.370526 69.793685-141.743158 5.12-5.928421 9.701053-10.778947 12.665263-14.821053A134.736842 134.736842 0 0 0 315.553684 161.684211a26.947368 26.947368 0 0 1 53.894737-3.233685 191.865263 191.865263 0 0 0 23.713684 55.781053c2.964211 3.772632 7.006316 8.623158 11.587369 14.012632 25.6 29.642105 68.176842 79.225263 68.176842 142.821052a122.610526 122.610526 0 0 1-130.694737 126.113684z m2.694737-257.077894l-4.042105 5.928421c-3.772632 5.12-9.162105 11.048421-15.36 18.32421-22.366316 25.330526-56.32 63.326316-56.32 106.172632a66.290526 66.290526 0 0 0 73.027368 73.027368 69.254737 69.254737 0 0 0 75.722105-73.027368c0-43.654737-33.145263-80.842105-53.894737-107.789474-5.658947-6.467368-10.509474-12.126316-13.743158-16.707368z" fill="#2c2c2c" p-id="7741"></path><path d="M637.844211 810.307368h-2.964211a104.825263 104.825263 0 0 1-76.530526-45.271579 140.395789 140.395789 0 0 1-12.126316-103.208421 20.210526 20.210526 0 0 1 39.073684 10.778948 100.244211 100.244211 0 0 0 7.545263 70.602105 65.751579 65.751579 0 0 0 48.505263 26.947368 20.210526 20.210526 0 0 1-3.503157 40.151579z" fill="#2c2c2c" p-id="7742"></path></svg>