<?xml version="1.0" standalone="no"?><!DOCTYPE svg PUBLIC "-//W3C//DTD SVG 1.1//EN" "http://www.w3.org/Graphics/SVG/1.1/DTD/svg11.dtd"><svg t="1729311539791" class="icon" viewBox="0 0 1026 1024" version="1.1" xmlns="http://www.w3.org/2000/svg" p-id="4949" xmlns:xlink="http://www.w3.org/1999/xlink" width="200.390625" height="200"><path d="M105.472 335.872q29.696 33.792 71.168 46.08t90.624 12.288q38.912 0 74.752-15.36t62.976-41.472 43.008-61.952 15.872-77.824q0-49.152-11.264-92.16t-45.056-72.704q63.488 26.624 103.424 83.968t39.936 131.072q0 22.528-3.072 41.984-80.896 26.624-132.608 72.704t-67.072 109.568q-25.6-25.6-72.192-39.936t-107.008-9.216q-41.984-35.84-63.488-87.04zM721.92 320.512q71.68 0 122.368 17.92t84.48 47.104 53.248 67.072 28.672 76.8 11.776 75.776 2.56 65.536q0 43.008-18.944 83.968t-54.784 72.192-87.04 50.688-115.712 19.456l-514.048 0q-64.512 0-109.056-16.896t-72.704-45.056-40.448-65.024-12.288-77.824 15.872-77.312 43.008-64 63.488-43.52 78.336-15.872q59.392 0 107.008 30.72t72.192 79.872q0-50.176 18.432-100.352t58.88-90.624 105.472-65.536 159.232-25.088z" p-id="4950"></path></svg>