<?xml version="1.0" standalone="no"?><!DOCTYPE svg PUBLIC "-//W3C//DTD SVG 1.1//EN" "http://www.w3.org/Graphics/SVG/1.1/DTD/svg11.dtd"><svg t="1729315843622" class="icon" viewBox="0 0 1024 1024" version="1.1" xmlns="http://www.w3.org/2000/svg" p-id="2528" xmlns:xlink="http://www.w3.org/1999/xlink" width="200" height="200"><path d="M276.928 509.0432a238.8096 238.8096 0 1 0 477.6192 0c0-131.8912-106.9184-238.8096-238.8096-238.8096S276.928 377.152 276.928 509.056z" fill="#FFE029" p-id="2529"></path><path d="M396.3392 715.8528a238.8096 238.8096 0 0 0 358.208-206.8096c0.5632 0-81.024 119.3984-242.5472 119.3984-161.5232 0-235.072-119.3984-235.072-119.3984a238.8096 238.8096 0 0 0 119.4112 206.8096z" fill="#FFBF18" p-id="2530"></path><path d="M515.7376 202.6496a19.3664 19.3664 0 0 1-19.3152-19.3152v-48.2688c0-10.944 9.0112-19.3152 19.3152-19.3152 10.944 0 19.3152 9.0112 19.3152 19.3152v48.2688c0 10.304-8.3712 19.3152-19.3152 19.3152z m-180.224 58.5728c-8.3712 6.4384-21.248 4.5056-27.0464-4.5056l-28.3136-38.6176c-6.4384-8.3712-4.5056-21.248 4.5056-27.0336 8.3712-6.4384 21.248-4.5056 27.0336 4.5056l28.3264 38.6176c6.4256 8.3712 4.5056 20.608-4.5184 27.0336z m-111.36 342.4384c3.2128 10.304-2.5728 21.248-12.2368 24.4608l-45.696 14.8096c-10.304 3.2128-21.248-2.5856-24.4608-12.2368-3.2128-10.2912 2.5728-21.248 12.224-24.448l45.696-14.8096c10.304-3.8656 21.248 1.92 24.4736 12.224z m111.36 153.1904c8.3584 6.4384 10.2912 18.6752 4.5056 27.0336L311.68 822.528c-6.4384 8.3584-18.6624 10.2912-27.0336 4.5056-8.3712-6.4384-10.304-18.6752-4.5056-27.0336l28.3136-38.6304c6.4384-9.0112 18.6752-10.9312 27.0336-4.5056z m180.224 58.5856c10.944 0 19.3152 9.0112 19.3152 19.3024v48.2816c0 10.944-9.0112 19.3024-19.3152 19.3024a19.3664 19.3664 0 0 1-19.3152-19.3024v-48.2816c0-10.944 8.3712-19.3024 19.3152-19.3024z m180.224-58.5856c8.3712-6.4256 21.248-4.5056 27.0336 4.5056l28.3264 38.6304c6.4384 8.3584 4.5056 21.248-4.5056 27.0336-8.3712 6.4384-21.248 4.5056-27.0336-4.5056L691.456 783.872c-6.4256-8.3584-4.5056-20.5952 4.5056-27.0336z m111.36-153.1904c3.2256-10.304 14.1568-16.0896 24.4608-12.224l45.696 14.7968c10.304 3.2256 16.1024 14.1696 12.2368 24.4608-3.2256 10.304-14.1568 16.0896-24.4608 12.2368l-45.696-14.8096c-10.304-3.2128-15.4496-14.1568-12.2368-24.4608z m0-189.2352c-3.2128-10.304 2.5728-21.248 12.2368-24.4608l45.696-14.8096c10.304-3.2128 21.248 2.5728 24.448 12.224 3.2256 10.304-2.56 21.248-12.224 24.4608l-45.696 14.8096c-10.304 3.2128-21.248-1.92-24.448-12.224z m-583.232 0c3.2128-10.304-2.5856-21.248-12.2368-24.4608l-45.696-14.8096c-10.304-3.2128-21.248 2.5728-24.4608 12.224-3.2256 10.304 2.5728 21.248 12.224 24.4608l45.696 14.8096c10.304 3.2128 21.248-1.92 24.4736-12.224z m471.872-153.2032c-8.3584-6.4384-10.2912-18.6624-4.5056-27.0336l28.3264-38.6176c6.4384-8.3712 18.6624-10.304 27.0336-4.5056 8.3712 6.4384 10.304 18.6624 4.5056 27.0336l-28.3264 38.6176c-6.4256 8.3712-18.6624 10.944-27.0336 4.5056z" fill="#FFD429" p-id="2531"></path></svg>